<svg width="18" height="18" viewBox="0 0 18 18" fill="none" xmlns="http://www.w3.org/2000/svg">
<path d="M8.63007 0C11.0133 0 13.1708 0.965951 14.7325 2.52774C16.2943 4.08953 17.2603 6.24701 17.2603 8.63007C17.2603 11.0131 16.2943 13.1706 14.7325 14.7324C13.1708 16.294 11.0133 17.26 8.63007 17.26C6.24701 17.26 4.08953 16.294 2.52774 14.7324C0.965951 13.1708 0 11.0131 0 8.63007C0 6.24687 0.965951 4.08938 2.52774 2.52774C4.08953 0.965951 6.24701 0 8.63007 0ZM10.0257 5.92268C10.2695 5.6721 10.2638 5.27136 10.0133 5.02766C9.76289 4.78396 9.36201 4.78944 9.11817 5.04003L6.05078 8.20321L6.50447 8.64454L6.04882 8.20265C5.80484 8.45435 5.81102 8.85607 6.06272 9.10019C6.07003 9.10722 6.07733 9.1141 6.08492 9.1207L9.11817 12.2224C9.36201 12.4729 9.76289 12.4784 10.0133 12.2347C10.2638 11.9912 10.2695 11.5903 10.0257 11.3397L7.38797 8.64271L10.0257 5.92268ZM13.8349 3.42528C12.503 2.09329 10.6627 1.26949 8.63007 1.26949C6.59746 1.26949 4.75728 2.09329 3.42528 3.42528C2.09329 4.75728 1.26949 6.59746 1.26949 8.63007C1.26949 10.6627 2.09329 12.5029 3.42542 13.8349C4.75728 15.1668 6.59746 15.9908 8.63021 15.9908C10.663 15.9908 12.5031 15.167 13.835 13.8349C15.1671 12.503 15.9911 10.6627 15.9911 8.63007C15.9909 6.59746 15.167 4.75728 13.8349 3.42528Z" fill="#949494"/>
</svg>
