<svg width="19" height="21" viewBox="0 0 19 21" fill="none" xmlns="http://www.w3.org/2000/svg">
<path d="M7.62051 10.4996C7.57328 11.0014 7.59206 11.5072 7.67636 12.0041C7.72301 12.3415 7.87339 12.6561 8.10668 12.9042C8.21126 13.0034 8.33454 13.0808 8.46934 13.1318C8.60413 13.1829 8.74774 13.2066 8.89179 13.2015C9.07227 13.1921 9.24841 13.1427 9.40752 13.057C9.65863 12.9099 9.86873 12.702 10.0185 12.4525C10.183 12.1941 10.3102 11.9138 10.3963 11.6198L10.8069 6.8435C10.6243 6.80528 10.4383 6.78602 10.2518 6.78601C9.74997 6.7649 9.2568 6.92134 8.85894 7.22784C8.47442 7.56414 8.19024 8.00008 8.0377 8.48761C7.82377 9.14346 7.6833 9.82102 7.61887 10.5079L7.62051 10.4996ZM10.7691 14.1016C10.6027 14.3196 10.4114 14.5174 10.1992 14.6912C9.56728 15.1961 8.77727 15.4614 7.96872 15.4402C7.30586 15.4521 6.65873 15.2378 6.13407 14.8325C5.5846 14.3858 5.17992 13.7862 4.9712 13.1095C4.70942 12.2659 4.62827 11.3767 4.73304 10.4996C4.85161 9.39405 5.17641 8.32049 5.69061 7.3346C6.12244 6.50099 6.75385 5.7872 7.52853 5.25687C8.26564 4.7664 9.13319 4.50888 10.0185 4.51775C10.8945 4.51775 11.5789 4.64039 12.0716 4.88567C12.5634 5.13261 13.041 5.40678 13.5022 5.70691L12.9536 12.1553C12.916 12.3588 12.916 12.5676 12.9536 12.7712C12.9863 12.9176 13.0584 13.0522 13.1622 13.1604C13.2559 13.2575 13.373 13.3288 13.5022 13.3674C13.7679 13.4487 14.0521 13.4464 14.3165 13.361C14.5809 13.2755 14.8126 13.1109 14.9804 12.8894C15.3293 12.4568 15.5854 11.957 15.7327 11.4211C15.9371 10.7429 16.0476 10.04 16.0612 9.33184C16.1313 7.89304 15.9495 6.62286 15.5159 5.52131C15.1138 4.45961 14.3807 3.55549 13.425 2.94262C12.468 2.31958 11.2323 2.0086 9.71795 2.0097C8.26053 2.0097 7.01061 2.38035 5.96818 3.12165C4.9013 3.88597 4.05717 4.92058 3.52254 6.11917C2.92593 7.44869 2.59132 8.8808 2.53706 10.337C2.46396 11.4703 2.56871 12.6081 2.84748 13.709C3.07031 14.5804 3.49195 15.3882 4.07934 16.0693C4.64893 16.6995 5.36715 17.1772 6.16857 17.4588C7.08943 17.777 8.05889 17.9315 9.03304 17.9154C9.68033 17.9133 10.3258 17.8461 10.9597 17.715C11.5281 17.6087 12.086 17.4521 12.6268 17.2469L13.0505 19.2179C12.4652 19.575 11.8195 19.8221 11.1453 19.9471C10.4366 20.101 9.71386 20.1808 8.98869 20.1853C7.02758 20.1853 5.36321 19.8223 3.99557 19.0963C2.63481 18.371 1.55207 17.2161 0.915936 15.8114C0.233762 14.354 -0.0673579 12.5292 0.0125758 10.337C0.0593691 8.93376 0.33224 7.54722 0.820673 6.23085C1.26885 5.02086 1.94145 3.90636 2.80314 2.94591C3.64589 2.01507 4.678 1.27529 5.83022 0.776201C7.07125 0.246084 8.40963 -0.0180102 9.75901 0.000953506C11.6643 0.000953506 13.2712 0.39022 14.5797 1.16875C15.8688 1.92121 16.8952 3.052 17.5197 4.40771C18.1635 5.78958 18.4477 7.38551 18.3721 9.19552C18.3436 9.97358 18.2279 10.746 18.0272 11.4983C17.8416 12.2169 17.5398 12.9004 17.1337 13.5218C16.7454 14.11 16.2266 14.6007 15.6177 14.9557C14.9411 15.3248 14.1791 15.5089 13.4086 15.4895C12.9899 15.502 12.5731 15.4281 12.1843 15.2724C11.7955 15.1167 11.4429 14.8825 11.1485 14.5845C11.0032 14.4356 10.8759 14.2703 10.7691 14.0917V14.1016Z" fill="white"/>
</svg>
