<svg width="12" height="18" viewBox="0 0 12 18" fill="none" xmlns="http://www.w3.org/2000/svg">
<path d="M5.85748 8.3824C5.85748 6.95513 7.01485 5.79844 8.44179 5.79844H8.81558C8.82577 5.79877 8.83697 5.7981 8.8475 5.7981C10.4486 5.7981 11.7469 7.0967 11.7469 8.69746C11.7469 10.2982 10.4486 11.5965 8.8475 11.5965C8.83697 11.5965 8.82577 11.5962 8.81524 11.5962L8.44179 11.5965C7.01485 11.5965 5.85748 10.4391 5.85748 9.01218V8.3824Z" fill="#00B6FF"/>
<path d="M0 14.4961C0 12.895 1.29826 11.5964 2.89937 11.5964L5.85747 11.5968V14.4663C5.85747 16.084 4.53136 17.3948 2.91363 17.3948C1.31286 17.3948 0 16.0969 0 14.4961Z" fill="#24CB71"/>
<path d="M5.85748 0.000339504V5.7984H8.81558C8.82577 5.79806 8.83697 5.79874 8.8475 5.79874C10.4486 5.79874 11.7469 4.50013 11.7469 2.89937C11.7469 1.29826 10.4486 0 8.8475 0C8.83697 0 8.82577 0.000339504 8.81524 0.000339504H5.85748Z" fill="#FF7237"/>
<path d="M0 2.89893C0 4.50003 1.29826 5.7983 2.89937 5.7983H5.85747V0.000244141H2.89903C1.29826 0.000244141 0 1.29817 0 2.89893Z" fill="#FF3737"/>
<path d="M0 8.69752C0 10.2986 1.29826 11.5969 2.89937 11.5969H5.85747V5.79883H2.89903C1.29826 5.79883 0 7.09675 0 8.69752Z" fill="#874FFF"/>
</svg>
