<svg width="19" height="19" viewBox="0 0 19 19" fill="none" xmlns="http://www.w3.org/2000/svg">
<path d="M6.12788 9.19767C6.1249 7.50572 7.4943 6.13126 9.18592 6.12831C10.8779 6.12501 12.2526 7.4938 12.2559 9.18607C12.2591 10.8783 10.8898 12.2525 9.19752 12.2558C7.5059 12.259 6.13115 10.8899 6.12788 9.19767ZM4.47231 9.20097C4.47737 11.8078 6.59459 13.9164 9.20082 13.9113C11.8073 13.9063 13.9171 11.7897 13.9121 9.1828C13.907 6.57682 11.7895 4.467 9.18265 4.4721C6.57639 4.47716 4.46725 6.59467 4.47231 9.20097ZM12.9859 4.27849C12.987 4.88725 13.482 5.38017 14.0908 5.37898C14.6998 5.37776 15.1927 4.88308 15.1918 4.27432C15.1906 3.66557 14.6956 3.17236 14.0866 3.17358C13.4776 3.17476 12.9847 3.66973 12.9859 4.27849ZM5.49234 16.6806C4.59619 16.6416 4.10955 16.4926 3.78524 16.3678C3.35576 16.2017 3.0493 16.0024 2.72675 15.6823C2.40482 15.3609 2.20496 15.0553 2.03728 14.6267C1.91132 14.3024 1.75972 13.8164 1.71771 12.9202C1.67215 11.9514 1.66174 11.6607 1.65728 9.20632C1.65251 6.75255 1.66145 6.46185 1.70375 5.49213C1.74213 4.59658 1.89197 4.1093 2.01645 3.78528C2.18263 3.35523 2.3813 3.04934 2.70205 2.72683C3.02338 2.40428 3.32894 2.20504 3.75781 2.03736C4.08186 1.91075 4.56789 1.76034 5.46376 1.71779C6.43316 1.6719 6.72353 1.6621 9.1773 1.65732C11.6316 1.65255 11.9223 1.6612 12.892 1.70379C13.7875 1.74278 14.2748 1.89111 14.5986 2.01649C15.0283 2.18267 15.3347 2.38076 15.657 2.70209C15.9792 3.02345 16.1791 3.32841 16.3468 3.75821C16.4733 4.08133 16.6237 4.56797 16.666 5.46354C16.7122 6.43294 16.7226 6.72364 16.7271 9.17741C16.7318 11.6318 16.7229 11.9225 16.6803 12.8916C16.6413 13.7878 16.4927 14.2748 16.3676 14.5994C16.2014 15.0285 16.0028 15.335 15.6817 15.6575C15.3607 15.9789 15.0551 16.1793 14.626 16.347C14.3025 16.4733 13.8159 16.624 12.9206 16.6666C11.9512 16.7121 11.6608 16.7226 9.20617 16.727C6.7524 16.7318 6.46206 16.7226 5.49234 16.6806ZM5.38512 0.0636531C4.40707 0.109829 3.73906 0.266452 3.1553 0.495212C2.55103 0.730794 2.03879 1.04648 1.52924 1.55815C1.01905 2.0701 0.705727 2.58324 0.471941 3.18812C0.245623 3.77336 0.0922308 4.44168 0.0490355 5.42035C0.00616322 6.40081 -0.00367514 6.71352 0.00110041 9.20959C0.00587597 11.7054 0.0168633 12.0187 0.0636134 12.9994C0.110364 13.9772 0.266449 14.6449 0.495172 15.2289C0.731041 15.8332 1.04644 16.3452 1.5584 16.8551C2.07006 17.365 2.58352 17.678 3.18869 17.9121C3.77332 18.1381 4.4419 18.2921 5.42027 18.335C6.4007 18.3782 6.71369 18.3877 9.20915 18.383C11.7058 18.3782 12.0188 18.3672 12.9993 18.3207C13.9773 18.2739 14.6447 18.1173 15.229 17.8891C15.8333 17.6527 16.3455 17.3379 16.8552 16.8259C17.3647 16.3142 17.678 15.8008 17.9118 15.1956C18.1382 14.611 18.2921 13.9423 18.3347 12.9646C18.3776 11.9835 18.3878 11.6702 18.3829 9.17443C18.3782 6.67836 18.3669 6.36566 18.3204 5.38552C18.274 4.40685 18.1173 3.73943 17.8889 3.15509C17.6527 2.55082 17.3376 2.03912 16.826 1.52896C16.3143 1.01937 15.8008 0.705444 15.1957 0.472268C14.6108 0.245914 13.9424 0.09166 12.9641 0.0493623C11.9836 0.00587968 11.6706 -0.00363552 9.17429 0.00110412C6.67854 0.00587968 6.36554 0.0165798 5.38512 0.0636531Z" fill="white"/>
</svg>
