<svg width="19" height="21" viewBox="0 0 19 21" fill="none" xmlns="http://www.w3.org/2000/svg">
<path d="M5.51401 13.1808C5.28387 13.1191 5.14973 12.8734 5.21441 12.6319C5.2791 12.3905 5.51814 12.2448 5.74828 12.3065L8.84577 13.1364C9.07591 13.1981 9.21006 13.4438 9.14537 13.6852C9.08068 13.9267 8.84164 14.0724 8.6115 14.0107L5.51401 13.1808ZM7.17138 6.99537C6.94125 6.93371 6.8071 6.68797 6.87178 6.44656C6.93647 6.20514 7.17552 6.0594 7.40565 6.12106L12.9009 7.59351C13.131 7.65518 13.2652 7.90092 13.2005 8.14233C13.1358 8.38374 12.8968 8.52948 12.6666 8.46782L7.17138 6.99537ZM5.54345 0.282839L17.4327 3.46856C17.7002 3.54022 17.9122 3.7194 18.0374 3.94876C18.1626 4.17812 18.2032 4.46174 18.1281 4.7423L14.1114 19.7327C14.0362 20.0133 13.8592 20.2386 13.6361 20.3746C13.413 20.5107 13.1398 20.5598 12.8723 20.4882L0.983061 17.3025C0.715606 17.2308 0.503627 17.0516 0.378422 16.8223C0.253218 16.5929 0.212553 16.3093 0.287729 16.0287L4.30441 1.03827C4.37958 0.757708 4.55661 0.532411 4.77972 0.396385C5.00283 0.260359 5.276 0.211175 5.54345 0.282839ZM17.1985 4.34287L5.30918 1.15715C5.27186 1.14715 5.23328 1.15429 5.20141 1.17372C5.16954 1.19316 5.14437 1.22487 5.13388 1.26402L1.11721 16.2545C1.10672 16.2936 1.11265 16.3337 1.13054 16.3664C1.14842 16.3992 1.17826 16.4247 1.21558 16.4347L13.1049 19.6204C13.1422 19.6304 13.1808 19.6232 13.2126 19.6038C13.2445 19.5844 13.2697 19.5527 13.2802 19.5135L17.2968 4.52307C17.3073 4.48393 17.3014 4.44387 17.2835 4.41111C17.2656 4.37834 17.2358 4.35287 17.1985 4.34287ZM6.3427 10.0881C6.11256 10.0264 5.97841 9.78066 6.0431 9.53925C6.10779 9.29784 6.34683 9.1521 6.57696 9.21376L12.0722 10.6862C12.3024 10.7479 12.4365 10.9936 12.3718 11.235C12.3071 11.4764 12.0681 11.6222 11.8379 11.5605L6.3427 10.0881Z" fill="white" stroke="white" stroke-width="0.5"/>
</svg>
