<svg width="12" height="6" viewBox="0 0 12 6" fill="none" xmlns="http://www.w3.org/2000/svg">
<path fill-rule="evenodd" clip-rule="evenodd" d="M5.87343 5.95277C9.117 5.95277 11.7469 4.62016 11.7469 2.97591C11.7469 1.33261 9.117 0 5.87343 0C2.62985 0 0 1.33261 0 2.97686C0 4.62016 2.62985 5.95277 5.87343 5.95277ZM8.97456 2.38895C8.92963 2.33924 8.81109 2.31438 8.61799 2.31438H8.32642L8.1553 3.19291H8.3226C8.44018 3.19291 8.5396 3.1824 8.62277 3.16136C8.69542 3.1432 8.75374 3.11739 8.79771 3.08393C8.84073 3.05143 8.87706 3.00554 8.90765 2.94627C8.94206 2.88031 8.96978 2.7981 8.9889 2.69963C9.00707 2.60786 9.01185 2.53234 9.0042 2.47212C8.99942 2.43292 8.98986 2.4052 8.97456 2.38895ZM5.21572 0.655789H5.86673C5.97189 0.655789 6.05793 0.741826 6.05793 0.846982C6.05793 0.863233 6.05601 0.879484 6.05219 0.89478L5.94321 1.45593H6.29118C6.48906 1.45593 6.65827 1.47409 6.79975 1.50946C6.95653 1.54961 7.08176 1.61175 7.17544 1.69779C7.2567 1.77235 7.31406 1.86412 7.34847 1.9731L7.41635 1.62227C7.42877 1.52858 7.50907 1.45593 7.60563 1.45593H8.8675C9.07781 1.45593 9.26326 1.48461 9.42387 1.54292C9.59307 1.6041 9.73264 1.69683 9.84162 1.82111C9.95156 1.94729 10.0233 2.09642 10.0558 2.26945C10.0863 2.43292 10.0825 2.61455 10.0433 2.81626C10.0271 2.89752 10.0051 2.97782 9.97737 3.05621C9.94964 3.13364 9.91619 3.20725 9.87699 3.27704C9.83684 3.34778 9.79191 3.41565 9.7422 3.47779C9.69153 3.54088 9.63513 3.60206 9.573 3.65846C9.49747 3.7292 9.41813 3.78943 9.33496 3.83914C9.24892 3.89076 9.16002 3.93091 9.06729 3.9615C8.97743 3.99114 8.87419 4.01313 8.75947 4.02746C8.64571 4.0418 8.52431 4.04945 8.39621 4.04945H7.99184L7.86565 4.68421C7.85322 4.77789 7.77292 4.85055 7.67637 4.85055H7.02058C7.00911 4.85055 6.99668 4.84959 6.98425 4.84672C6.88101 4.82665 6.81314 4.72723 6.83225 4.62303L6.94506 4.04276C6.92976 4.04658 6.91351 4.0485 6.89726 4.0485H6.23574C6.13058 4.0485 6.04454 3.96246 6.04454 3.8573C6.04454 3.84105 6.04645 3.8248 6.05028 3.80951L6.30648 2.48932C6.31795 2.43101 6.32177 2.38608 6.31795 2.35358C6.31699 2.34402 6.32464 2.3488 6.32177 2.34497L6.295 2.33828C6.25677 2.32872 6.20323 2.32394 6.1344 2.32394H5.77114L5.4681 3.89459C5.45089 3.98636 5.37059 4.04945 5.28073 4.04945H4.62972C4.52456 4.04945 4.43853 3.96342 4.43853 3.85826C4.43853 3.84201 4.44044 3.82576 4.44426 3.81046L4.47868 3.6317L4.45 3.65846C4.37448 3.7292 4.29513 3.78943 4.21197 3.83914C4.12593 3.89076 4.03702 3.93091 3.9443 3.9615C3.85444 3.99114 3.75119 4.01313 3.63648 4.02746C3.52272 4.0418 3.40131 4.04945 3.27321 4.04945H2.86788L2.74456 4.68421C2.73214 4.77789 2.65184 4.85055 2.55528 4.85055H1.89949C1.88802 4.85055 1.8756 4.84959 1.86317 4.84672C1.75992 4.82665 1.69205 4.72723 1.71117 4.62303L2.29431 1.62227C2.30673 1.52858 2.38704 1.45593 2.48359 1.45593H3.74546C3.95577 1.45593 4.14122 1.48461 4.30183 1.54292C4.47199 1.6041 4.6106 1.69683 4.71958 1.82111C4.75208 1.85839 4.78172 1.89854 4.80848 1.9406L5.02836 0.811611C5.04556 0.719839 5.12586 0.655789 5.21572 0.655789ZM3.85444 2.38895C3.80951 2.33924 3.69097 2.31438 3.49786 2.31438H3.20534L3.03422 3.19291H3.20151C3.3191 3.19291 3.41852 3.1824 3.50169 3.16136C3.57434 3.1432 3.63265 3.11739 3.67663 3.08393C3.71964 3.05143 3.75597 3.00554 3.78656 2.94627C3.82098 2.88031 3.8487 2.7981 3.86782 2.69963C3.88598 2.60786 3.89076 2.53234 3.88311 2.47212C3.87833 2.43292 3.86877 2.4052 3.85444 2.38895Z" fill="#6884BA"/>
</svg>
