<svg width="32" height="32" viewBox="0 0 32 32" fill="none" xmlns="http://www.w3.org/2000/svg">
<path fill-rule="evenodd" clip-rule="evenodd" d="M16.001 0.00304937C16.8526 -0.0337105 17.5244 0.26562 18.2015 0.698862C18.5693 0.933691 18.957 1.26708 19.374 1.62559C19.9315 2.10488 20.5412 2.62906 21.225 3.02261C21.8702 3.39476 22.727 3.42679 23.6281 3.46048C25.0729 3.5145 26.6315 3.57277 27.6131 5.04441C28.5175 6.39816 28.584 7.46865 28.6492 8.51934L28.6547 8.6075C28.7303 9.77069 28.9308 10.842 30.1131 12.4174C32.0688 15.0247 32.4751 16.7603 31.4673 18.5694C31.1004 19.2279 30.5179 19.7301 30.0032 20.1738C29.5533 20.5617 29.1552 20.9049 28.9985 21.2687C28.6714 22.0333 28.6613 22.7113 28.6508 23.4092C28.6386 24.2282 28.6259 25.0747 28.1 26.121C27.423 27.4653 26.3787 28.3502 24.988 28.8018C24.4026 28.992 23.8151 28.9496 23.2569 28.9092C22.6978 28.8688 22.1681 28.8305 21.699 29.0303C20.8782 29.3775 20.1649 29.9537 19.4935 30.4962C18.8143 31.0449 18.178 31.5589 17.5166 31.7662C17.0088 31.9238 16.5036 32.0026 16.001 31.9999C15.4958 32.0026 14.9906 31.9264 14.4854 31.7662C13.8251 31.5589 13.1885 31.0452 12.5088 30.4966C11.8372 29.9546 11.1235 29.3786 10.303 29.0303C9.83256 28.8305 9.30275 28.8688 8.74394 28.9093C8.1861 28.9496 7.59937 28.992 7.01394 28.8018C5.6233 28.3502 4.57902 27.4653 3.90193 26.121C3.37477 25.0749 3.3621 24.2286 3.34985 23.4098C3.3394 22.7117 3.32925 22.0335 3.00088 21.2687C2.84418 20.9049 2.4461 20.5617 1.99614 20.1738C1.48147 19.7301 0.898927 19.2279 0.532112 18.5694C-0.475709 16.7603 -0.0668518 15.0247 1.88629 12.4174C3.06859 10.842 3.26911 9.77069 3.34464 8.6075L3.3515 8.50116C3.41864 7.45629 3.48714 6.39035 4.38631 5.04441C5.36792 3.57277 6.92644 3.5145 8.37131 3.46048C9.27236 3.42679 10.1292 3.39476 10.7744 3.02261C11.4564 2.63007 12.0639 2.10759 12.6199 1.6293C13.0384 1.26939 13.4277 0.934502 13.7978 0.698862C14.4775 0.26562 15.1494 -0.0337105 16.001 0.00304937ZM15.2848 16.117L13.2379 14.153C12.9853 13.9088 12.79 13.893 12.5478 14.1504L10.928 15.8439C10.7171 16.054 10.6963 16.2667 10.889 16.4767L14.4046 20.0031C14.4276 20.026 14.4498 20.0483 14.4714 20.07C14.4901 20.0888 14.5083 20.1071 14.5261 20.125C14.5324 20.1313 14.54 20.139 14.5462 20.1452C14.9027 20.504 15.0736 20.6759 15.2402 20.672C15.3932 20.6683 15.5427 20.5165 15.8294 20.2252C15.9036 20.1499 15.9868 20.0653 16.0817 19.9716L21.2042 14.9013C21.6365 14.476 21.6599 14.2081 21.2016 13.7513L19.8057 12.3097C19.4031 11.8915 19.1856 12.1165 18.8727 12.4403C18.8517 12.462 18.8303 12.4842 18.8083 12.5067L15.2848 16.117Z" fill="#1D9BF0"/>
</svg>
