<svg width="19" height="12" viewBox="0 0 19 12" fill="none" xmlns="http://www.w3.org/2000/svg">
<path fill-rule="evenodd" clip-rule="evenodd" d="M5.33076 0C5.87257 0 6.36047 0.0471671 6.80526 0.143856C7.25107 0.236812 7.62766 0.39526 7.94729 0.610355C8.26315 0.82614 8.50674 1.11351 8.68691 1.4718C8.85926 1.82667 8.94544 2.27214 8.94544 2.79974C8.94544 3.37074 8.81686 3.84405 8.5573 4.22538C8.29538 4.6057 7.91506 4.91479 7.40478 5.15941C8.10097 5.36029 8.61464 5.71209 8.95934 6.21153C9.30373 6.71469 9.4693 7.31757 9.4693 8.02769C9.4693 8.60208 9.35767 9.09369 9.13985 9.51035C8.91729 9.93071 8.61567 10.2713 8.2462 10.5339C7.87298 10.7993 7.4421 10.9933 6.96066 11.1189C6.48261 11.2437 5.99101 11.3092 5.48274 11.3092H0V0.0010342L5.33145 0.00137893L5.33079 0H5.33076ZM11.9962 0.912316H16.5813V2.02924L11.9962 2.0289V0.911971V0.912316ZM13.0151 9.3417C13.353 9.67115 13.8375 9.83673 14.4699 9.83673C14.9222 9.83673 15.3178 9.72136 15.6438 9.49168C15.9699 9.26199 16.168 9.01871 16.2437 8.76697L18.2247 8.76731C17.9051 9.75394 17.424 10.4549 16.7638 10.8786C16.1134 11.3024 15.3175 11.5175 14.3939 11.5175C13.7469 11.5175 13.1695 11.4127 12.6487 11.2081C12.1282 11.0001 11.6939 10.7097 11.3275 10.328C10.9723 9.94766 10.6924 9.49541 10.4946 8.96373C10.3005 8.43651 10.2008 7.85057 10.2008 7.21884C10.2008 6.60507 10.3019 6.03407 10.5017 5.50615C10.7063 4.97416 10.9865 4.51918 11.3597 4.13443C11.7326 3.75003 12.1706 3.44503 12.688 3.22246C13.2017 2.99955 13.769 2.88793 14.3973 2.88793C15.0898 2.88793 15.6964 3.02127 16.2172 3.2937C16.7343 3.56243 17.1614 3.92546 17.4953 4.37805C17.8298 4.83099 18.0663 5.3511 18.2135 5.93229C18.3608 6.51346 18.411 7.12009 18.3706 7.75658H12.4583C12.4583 8.39885 12.6741 9.0136 13.0144 9.33935L13.0151 9.3417ZM15.5967 5.04132C15.3314 4.74717 14.875 4.58534 14.3261 4.58534C13.9664 4.58534 13.6692 4.64606 13.4324 4.7682C13.1993 4.88968 13.0087 5.04032 12.8614 5.22048C12.7179 5.39996 12.6168 5.59402 12.5608 5.79792C12.5035 5.99537 12.4678 6.17824 12.456 6.33669L16.1185 6.33634C16.0645 5.7623 15.8671 5.33854 15.598 5.04066L15.5967 5.04132H15.5967ZM5.00674 4.56666C5.44781 4.56666 5.81389 4.46182 6.10091 4.25046C6.38794 4.04248 6.52467 3.69778 6.52467 3.22347C6.52467 2.9619 6.47785 2.74203 6.38455 2.57307C6.2882 2.40445 6.16164 2.27111 6.00049 2.17815C5.84204 2.08178 5.66325 2.01597 5.45186 1.98035C5.24728 1.94134 5.0315 1.92336 4.81301 1.92336H2.48692V4.56531H5.00743L5.00674 4.56666ZM5.14312 9.38074C5.38809 9.38074 5.62117 9.35899 5.83865 9.30812C6.06121 9.25791 6.25902 9.18291 6.42358 9.06827C6.58881 8.95661 6.72925 8.81005 6.82901 8.61599C6.93013 8.42531 6.97626 8.18172 6.97626 7.88415C6.97626 7.30298 6.81069 6.886 6.48465 6.63425C6.15859 6.3859 5.72429 6.26444 5.18587 6.26444H2.48623V9.37632L5.14312 9.37597V9.38071V9.38074Z" fill="white"/>
</svg>
