<svg width="12" height="14" viewBox="0 0 12 14" fill="none" xmlns="http://www.w3.org/2000/svg">
<path fill-rule="evenodd" clip-rule="evenodd" d="M11.7469 0L10.6768 11.9886L5.86638 13.3221L1.06898 11.9908L0 0H11.7469Z" fill="#E44D26"/>
<path fill-rule="evenodd" clip-rule="evenodd" d="M5.87286 12.3029L9.76065 11.2253L10.6746 0.97998H5.87286V12.3029Z" fill="#F16529"/>
<path fill-rule="evenodd" clip-rule="evenodd" d="M3.79348 3.92129H5.87397V2.45117H2.18567L2.22036 2.84581L2.58139 6.89839H5.87181V5.42719H3.92791L3.79348 3.92129ZM4.12414 7.63345H2.6486L2.85459 9.9427L5.86747 10.7786L5.87397 10.7764V9.24667L5.86747 9.24884L4.22931 8.80651L4.12414 7.63345Z" fill="#EBEBEB"/>
<path fill-rule="evenodd" clip-rule="evenodd" d="M5.86853 6.8985H7.67907L7.50886 8.80553L5.86853 9.24787V10.7776L8.88357 9.94173L8.90526 9.69345L9.2511 5.82193L9.28688 5.42729H5.86853V6.8985ZM5.86853 3.91815V3.9214H9.42023L9.4495 3.59073L9.51672 2.84483L9.55141 2.4502H5.86853V3.91815Z" fill="white"/>
</svg>
