<svg width="12" height="12" viewBox="0 0 12 12" fill="none" xmlns="http://www.w3.org/2000/svg">
<path fill-rule="evenodd" clip-rule="evenodd" d="M0 0H11.7469V11.7469H0V0Z" fill="#F7DF1E"/>
<path fill-rule="evenodd" clip-rule="evenodd" d="M3.08868 9.81665L3.98729 9.27271C4.16032 9.58053 4.31805 9.84055 4.69661 9.84055C5.05892 9.84055 5.28835 9.69907 5.28835 9.14652V5.39246H6.39249V9.16181C6.39249 10.3051 5.72236 10.8252 4.74441 10.8252C3.8611 10.8252 3.34871 10.3682 3.08868 9.81665ZM6.99187 9.69811L7.89048 9.17807C8.12756 9.56427 8.43442 9.84819 8.97836 9.84819C9.43531 9.84819 9.72783 9.61972 9.72783 9.30425C9.72783 8.92569 9.42862 8.79186 8.92387 8.57103L8.6476 8.45249C7.85128 8.11313 7.32264 7.68772 7.32264 6.78912C7.32264 5.96126 7.95357 5.33032 8.93917 5.33032C9.64084 5.33032 10.1456 5.57505 10.5079 6.21363L9.64849 6.76522C9.45921 6.42585 9.25463 6.29202 8.93917 6.29202C8.61605 6.29202 8.41052 6.49659 8.41052 6.76522C8.41052 7.09598 8.6151 7.23077 9.0883 7.43535L9.36457 7.55389C10.3033 7.95635 10.831 8.36646 10.831 9.28896C10.831 10.2822 10.05 10.8261 9.0013 10.8261C7.97747 10.8261 7.31499 10.3367 6.99187 9.69811Z" fill="black"/>
</svg>
